<svg width="44" height="44" viewBox="0 0 44 44" fill="none" xmlns="http://www.w3.org/2000/svg">
<rect opacity="0.01" width="44" height="44" fill="#191919"/>
<path d="M16.5 5.5H9.16667C7.14162 5.5 5.5 7.14162 5.5 9.16667V16.5C5.5 18.525 7.14162 20.1667 9.16667 20.1667H16.5C18.525 20.1667 20.1667 18.525 20.1667 16.5V9.16667C20.1667 7.14162 18.525 5.5 16.5 5.5Z" fill="#191919"/>
<path d="M34.8333 5.5H27.4999C25.4749 5.5 23.8333 7.14162 23.8333 9.16667V16.5C23.8333 18.525 25.4749 20.1667 27.4999 20.1667H34.8333C36.8583 20.1667 38.4999 18.525 38.4999 16.5V9.16667C38.4999 7.14162 36.8583 5.5 34.8333 5.5Z" fill="#191919"/>
<path d="M16.5 23.8333H9.16667C7.14162 23.8333 5.5 25.4749 5.5 27.4999V34.8333C5.5 36.8583 7.14162 38.4999 9.16667 38.4999H16.5C18.525 38.4999 20.1667 36.8583 20.1667 34.8333V27.4999C20.1667 25.4749 18.525 23.8333 16.5 23.8333Z" fill="#191919"/>
<path d="M34.8333 23.8333H27.4999C25.4749 23.8333 23.8333 25.4749 23.8333 27.4999V34.8333C23.8333 36.8583 25.4749 38.4999 27.4999 38.4999H34.8333C36.8583 38.4999 38.4999 36.8583 38.4999 34.8333V27.4999C38.4999 25.4749 36.8583 23.8333 34.8333 23.8333Z" fill="#191919"/>
</svg>
