<svg width="44" height="44" viewBox="0 0 44 44" fill="none" xmlns="http://www.w3.org/2000/svg">
<rect opacity="0.01" x="44" width="44" height="44" transform="rotate(90 44 0)" fill="#191919"/>
<path d="M32.1934 38.5001C31.9002 38.5012 31.611 38.4321 31.3501 38.2984L22.0001 33.4034L12.6501 38.2984C12.0307 38.6241 11.2799 38.5688 10.7149 38.1557C10.1499 37.7427 9.86936 37.0441 9.99177 36.3551L11.8251 26.0334L4.27177 18.7C3.79154 18.2208 3.61522 17.5156 3.81343 16.8667C4.03021 16.202 4.60621 15.7184 5.29843 15.62L15.7484 14.0984L20.3501 4.69338C20.6564 4.0609 21.2973 3.65918 22.0001 3.65918C22.7029 3.65918 23.3438 4.0609 23.6501 4.69338L28.3068 14.08L38.7568 15.6017C39.449 15.7001 40.025 16.1837 40.2418 16.8484C40.44 17.4972 40.2637 18.2025 39.7834 18.6817L32.2301 26.015L34.0634 36.3367C34.1971 37.0385 33.9109 37.754 33.3301 38.1701C32.9981 38.4027 32.5984 38.5187 32.1934 38.5001Z" fill="#191919"/>
</svg>
