<svg width="44" height="44" viewBox="0 0 44 44" fill="none" xmlns="http://www.w3.org/2000/svg">
<rect opacity="0.01" width="44" height="44" fill="#191919"/>
<path d="M20.3683 42.1667C20.1558 42.1664 19.9448 42.1292 19.745 42.0567C18.9517 41.7662 18.4596 40.9713 18.5533 40.1317L19.965 27.1334H9.16667C8.48795 27.1344 7.8642 26.7603 7.5454 26.1611C7.2266 25.562 7.26492 24.8357 7.645 24.2734L22.11 2.64002C22.5807 1.94346 23.4648 1.65631 24.255 1.94335C25.0131 2.22479 25.4972 2.96964 25.4467 3.77668L24.035 16.8667H34.8333C35.5121 16.8657 36.1358 17.2397 36.4546 17.8389C36.7734 18.4381 36.7351 19.1644 36.355 19.7267L21.89 41.36C21.5485 41.8652 20.9781 42.1676 20.3683 42.1667Z" fill="#191919"/>
</svg>
