<svg width="44" height="44" viewBox="0 0 44 44" fill="none" xmlns="http://www.w3.org/2000/svg">
<rect opacity="0.01" x="44" y="44" width="44" height="44" transform="rotate(180 44 44)" fill="#191919"/>
<path d="M5.93998 13.3649L21.56 21.8533C21.835 21.9999 22.165 21.9999 22.44 21.8533L38.06 13.3649C38.3514 13.221 38.528 12.9163 38.5079 12.5919C38.4879 12.2676 38.2752 11.9869 37.9683 11.8799L22.3483 5.49991C22.1251 5.40823 21.8748 5.40823 21.6516 5.49991L6.03164 11.8799C5.72476 11.9869 5.51204 12.2676 5.49202 12.5919C5.472 12.9163 5.64858 13.221 5.93998 13.3649Z" fill="#191919"/>
<path d="M37.9684 19.5433L34.6134 18.1133L22.4401 24.7316C22.1651 24.8783 21.8351 24.8783 21.5601 24.7316L9.38677 18.1133L6.03177 19.5433C5.74218 19.6953 5.56079 19.9954 5.56079 20.3224C5.56079 20.6495 5.74218 20.9496 6.03177 21.1016L21.6518 30.0849C21.9218 30.2501 22.2617 30.2501 22.5318 30.0849L38.1518 21.1016C38.4276 20.9181 38.5769 20.5952 38.5382 20.2662C38.4995 19.9372 38.2793 19.6578 37.9684 19.5433Z" fill="#191919"/>
<path d="M37.9684 27.6834L35.1084 26.4368L22.44 33.3301C22.165 33.4768 21.835 33.4768 21.56 33.3301L8.89169 26.4368L6.03169 27.6834C5.73384 27.8379 5.54688 28.1454 5.54688 28.4809C5.54688 28.8164 5.73384 29.124 6.03169 29.2784L21.6517 38.4451C21.9267 38.5918 22.2567 38.5918 22.5317 38.4451L38.1517 29.2784C38.4358 29.0923 38.5907 28.7618 38.5519 28.4244C38.5131 28.087 38.2873 27.8002 37.9684 27.6834Z" fill="#191919"/>
</svg>
