<svg width="105" height="31" viewBox="0 0 105 31" fill="none" xmlns="http://www.w3.org/2000/svg">
<path fill-rule="evenodd" clip-rule="evenodd" d="M52.4114 2.15332H48.6012V6.81302H46.5482V10.1754H48.6012V21.9449H52.4114V10.1754H54.4954V6.81302H52.4114V2.15332ZM42.9771 0C41.5777 0 40.4763 1.09151 40.4763 2.50745C40.4763 3.89322 41.5777 4.98532 42.9771 4.98532C44.4351 4.98532 45.537 3.89322 45.537 2.50745C45.537 1.09151 44.4351 0 42.9771 0ZM103.543 6.46021C102.889 6.46021 102.382 5.95855 102.382 5.30909C102.382 4.68966 102.889 4.18799 103.543 4.18799C104.169 4.18799 104.674 4.68966 104.674 5.30909C104.674 5.95855 104.169 6.46021 103.543 6.46021ZM103.543 4.01196C102.8 4.01196 102.205 4.60166 102.205 5.30911C102.205 6.0466 102.8 6.63688 103.543 6.63688C104.258 6.63688 104.853 6.0466 104.853 5.30911C104.853 4.60166 104.258 4.01196 103.543 4.01196ZM58.9286 12.8018C59.4348 10.7961 60.9828 9.67505 62.9768 9.67505C64.9714 9.67505 66.4585 10.766 66.9354 12.8018H58.9286ZM63.0654 6.34155C58.4832 6.34155 55.0003 9.8229 55.0003 14.4536C55.0003 19.0251 58.1857 22.3878 63.1253 22.3878C65.8634 22.3878 68.3045 21.3854 70.0903 19.4968L67.5305 16.9905C66.2802 18.1706 64.9409 19.0251 63.2146 19.0251C61.1319 19.0251 59.5541 17.845 59.0186 15.8695H70.8929V14.9553C70.8929 9.79272 67.6797 6.34155 63.0654 6.34155ZM96.7862 6.34142C94.9115 6.34142 93.3047 7.04873 92.1735 8.25903V0.413574H88.3633V21.9449H92.1735V13.7158C92.1735 11.5336 93.5729 10.0284 95.8935 10.0284C98.0665 10.0284 99.2573 11.3556 99.2573 13.7158V21.9449H103.067V13.0375C103.067 8.84947 100.417 6.34142 96.7862 6.34142ZM103.245 5.28019V4.80737H103.543C103.782 4.80737 103.871 4.89673 103.871 5.04437C103.871 5.19158 103.782 5.28019 103.543 5.28019H103.245ZM104.049 5.0445C104.049 4.74966 103.84 4.63086 103.543 4.63086H103.067V5.98763H103.245V5.45696H103.543L103.871 5.98763H104.078L103.722 5.42811C103.931 5.39734 104.049 5.28032 104.049 5.0445ZM80.3575 9.99954C81.9646 9.99954 83.2747 10.8251 84.2866 11.9763L86.9351 9.38026C85.4475 7.52168 83.0957 6.34155 80.418 6.34155C75.8051 6.34155 72.1732 9.8229 72.1732 14.3642C72.1732 18.9069 75.8051 22.3878 80.418 22.3878C83.0957 22.3878 85.4475 21.2074 86.9351 19.3507L84.2866 16.7547C83.3044 17.8753 81.9646 18.7303 80.3284 18.7303C77.8872 18.7303 76.012 16.8428 76.012 14.3642C76.012 11.8864 77.8872 9.99954 80.3575 9.99954ZM41.1018 21.9448H44.9121V6.81299H41.1018V21.9448ZM13.5419 18.7303C11.1009 18.7303 9.16583 16.8138 9.16583 14.3354C9.16583 11.8864 11.1009 9.99951 13.5419 9.99951C16.0118 9.99951 17.9467 11.8864 17.9467 14.3642C17.9467 16.8428 16.0118 18.7303 13.5419 18.7303ZM13.542 6.34155C8.92809 6.34155 5.2973 9.8229 5.2973 14.3642C5.2973 18.9069 8.92809 22.3878 13.542 22.3878C18.1549 22.3878 21.7855 18.9069 21.7855 14.3642C21.7855 9.8229 18.1549 6.34155 13.542 6.34155ZM0 21.9449H3.81021V0.413574H0V21.9449ZM31.3396 18.7303C28.8997 18.7303 26.9648 16.8138 26.9648 14.3354C26.9648 11.8864 28.8997 9.99951 31.3396 9.99951C33.8101 9.99951 35.745 11.8864 35.745 14.3642C35.745 16.8428 33.8101 18.7303 31.3396 18.7303ZM39.4353 9.8229V6.81319H34.0772C33.215 6.51953 32.2926 6.34155 31.3396 6.34155C26.7269 6.34155 23.0963 9.8229 23.0963 14.3642C23.0963 18.9069 26.7269 22.3878 31.3396 22.3878C35.9525 22.3878 39.5845 18.9069 39.5845 14.3642C39.5845 12.8307 39.167 11.3269 38.334 10.2058L39.4353 9.8229ZM31.3396 27.3136C28.8997 27.3136 26.9649 25.4263 26.9649 22.978H23.0963C23.0963 27.5206 26.7269 31 31.3396 31C35.9525 31 39.5845 27.5206 39.5845 22.978H35.7145C35.7145 25.4263 33.7795 27.3136 31.3396 27.3136Z" fill="#B4B4B4"/>
</svg>
